HIERARCHY
ROOT Model_Hips
{
	OFFSET 0.000000 96.915077 0.000000
	CHANNELS 6 Xposition Yposition Zposition Xrotation Yrotation Zrotation
	JOINT Model_Spine
	{
		OFFSET 0.000000 11.137703 -1.289900
		CHANNELS 3 Xrotation Yrotation Zrotation
		JOINT Model_Spine1
		{
			OFFSET 0.000000 12.993942 -1.504922
			CHANNELS 3 Xrotation Yrotation Zrotation
			JOINT Model_Spine2
			{
				OFFSET 0.000000 14.850220 -1.719911
				CHANNELS 3 Xrotation Yrotation Zrotation
				JOINT Model_Neck
				{
					OFFSET 0.000000 16.706543 -1.934903
					CHANNELS 3 Xrotation Yrotation Zrotation
					JOINT Model_Head
					{
						OFFSET 0.000000 10.471298 2.002100
						CHANNELS 3 Xrotation Yrotation Zrotation
						JOINT Model_HeadTop_End
						{
							OFFSET 0.000000 20.842606 3.985100
							CHANNELS 3 Xrotation Yrotation Zrotation
							End Site
							{
								OFFSET 0.000000 21.220154 0.000000
							}
						}
					}
				}
				JOINT Model_LeftShoulder
				{
					OFFSET 7.008500 14.768600 -1.919946
					CHANNELS 3 Xrotation Yrotation Zrotation
					JOINT Model_LeftArm
					{
						OFFSET 14.126271 -3.718048 0.029937
						CHANNELS 3 Xrotation Yrotation Zrotation
						JOINT Model_LeftForeArm
						{
							OFFSET 28.282801 0.000000 0.000000
							CHANNELS 3 Xrotation Yrotation Zrotation
							JOINT Model_LeftHand
							{
								OFFSET 26.204689 0.000000 0.000000
								CHANNELS 3 Xrotation Yrotation Zrotation
								End Site
								{
									OFFSET 26.204704 0.000000 0.000000
								}
							}
						}
					}
				}
				JOINT Model_RightShoulder
				{
					OFFSET -7.008500 14.768555 -1.949840
					CHANNELS 3 Xrotation Yrotation Zrotation
					JOINT Model_RightArm
					{
						OFFSET -14.126281 -3.718018 -0.029932
						CHANNELS 3 Xrotation Yrotation Zrotation
						JOINT Model_RightForeArm
						{
							OFFSET -28.283798 0.000000 -0.000001
							CHANNELS 3 Xrotation Yrotation Zrotation
							JOINT Model_RightHand
							{
								OFFSET -26.204193 0.000000 -0.000001
								CHANNELS 3 Xrotation Yrotation Zrotation
								End Site
								{
									OFFSET -26.204208 0.000000 -0.000001
								}
							}
						}
					}
				}
			}
		}
	}
	JOINT Model_LeftUpLeg
	{
		OFFSET 8.327700 -6.193199 -0.402800
		CHANNELS 3 Xrotation Yrotation Zrotation
		JOINT Model_LeftLeg
		{
			OFFSET 0.735802 -42.108742 -0.610721
			CHANNELS 3 Xrotation Yrotation Zrotation
			JOINT Model_LeftFoot
			{
				OFFSET -0.735806 -36.833748 -0.172876
				CHANNELS 3 Xrotation Yrotation Zrotation
				JOINT Model_LeftToeBase
				{
					OFFSET -0.565857 -11.977769 16.297714
					CHANNELS 3 Xrotation Yrotation Zrotation
					JOINT Model_LeftToe_End
					{
						OFFSET -0.111712 -0.312793 7.857784
						CHANNELS 3 Xrotation Yrotation Zrotation
						End Site
						{
							OFFSET -0.111712 -0.312793 7.857784
						}
					}
				}
			}
		}
	}
	JOINT Model_RightUpLeg
	{
		OFFSET -8.327700 -6.193199 -0.516500
		CHANNELS 3 Xrotation Yrotation Zrotation
		JOINT Model_RightLeg
		{
			OFFSET -0.735785 -42.108738 -0.434061
			CHANNELS 3 Xrotation Yrotation Zrotation
			JOINT Model_RightFoot
			{
				OFFSET 0.735776 -36.833748 -0.021630
				CHANNELS 3 Xrotation Yrotation Zrotation
				JOINT Model_RightToeBase
				{
					OFFSET 0.565817 -11.977745 15.903093
					CHANNELS 3 Xrotation Yrotation Zrotation
					JOINT Model_RightToe_End
					{
						OFFSET 0.111702 -0.312791 7.811342
						CHANNELS 3 Xrotation Yrotation Zrotation
						End Site
						{
							OFFSET 0.111702 -0.312791 7.811342
						}
					}
				}
			}
		}
	}
}
MOTION
Frames: 7
Frame Time: 0.016667
1.317379 86.662888 0.930497 2.347593 0.205594 -14.925823 11.175704 6.330252 0.671674 0.826036 1.684460 0.081297 0.831202 1.679010 0.069356 0.264770 5.325173 0.350128 0.286358 5.329486 0.257677 0.000001 -0.000000 0.000000 0.598586 -3.265761 -15.797142 17.642005 -3.568249 -46.861528 -0.000041 -52.766445 -0.000034 0.000001 0.000001 -0.000000 0.390023 7.113660 15.858743 13.818846 -10.033180 57.626648 0.000347 76.179101 -0.000316 0.000003 0.000002 -0.000000 -20.389788 3.252571 -2.559017 60.981971 6.298197 2.630623 -36.326272 -6.236498 16.618275 -14.779880 -0.000001 0.000001 -0.000001 -0.000000 0.000000 -29.469449 -11.395543 -9.598213 79.843518 -9.433365 0.626940 -1.097896 -11.928510 8.770869 -3.751263 -0.064063 1.807560 -0.000000 0.000001 -0.000001 
3.754095 85.893242 -2.461430 1.932288 -0.992565 -14.822728 11.137817 7.332905 0.230047 0.811636 1.978676 0.054773 0.818105 1.972251 0.040920 0.177484 5.122913 0.491211 0.193805 5.130174 0.401773 0.000002 0.000001 -0.000001 0.549684 -4.295113 -14.970135 22.985892 0.808871 -48.136561 0.000020 -55.829645 0.000017 0.000001 0.000000 -0.000000 0.406896 7.064387 15.407563 13.192101 -9.313292 56.804378 -0.000578 83.556033 0.000630 -0.000000 0.000003 -0.000002 -22.876503 4.069739 -4.418762 61.426651 8.594313 1.455915 -35.479913 -6.895501 18.750285 -14.013433 -0.000002 0.000002 -0.000000 -0.000000 -0.000000 -25.917884 -13.302849 -9.723522 83.430542 -9.382299 1.093580 -2.317842 -10.363297 8.543992 -2.117580 -0.001647 0.292063 0.000000 0.000000 0.000001 
6.324219 85.520828 -5.641281 1.259238 -2.646546 -14.855207 10.935756 8.216924 -0.071146 0.821542 2.236304 0.034181 0.829445 2.229114 0.019282 0.148242 4.962222 0.669502 0.159243 4.972538 0.585447 -0.000000 0.000000 -0.000000 0.555182 -4.395428 -13.825862 29.113634 4.983802 -50.238446 -0.000063 -59.655746 -0.000084 -0.000000 0.000001 -0.000000 0.399775 7.312317 15.240860 12.360572 -8.428570 54.642886 0.016093 91.191645 -0.015765 0.000003 0.000000 0.000001 -24.471682 4.992546 -5.799855 60.220118 10.114691 0.311074 -33.244300 -7.002873 20.354066 -13.056410 -0.000003 0.000001 -0.000001 0.000000 -0.000000 -21.268229 -14.831020 -9.231797 84.901574 -9.114486 1.542013 -2.635551 -8.703552 10.084386 -2.684665 -0.000012 -0.000015 0.000003 -0.000000 -0.000000 
9.043041 85.471855 -8.738928 0.480065 -4.730906 -14.979670 10.563955 8.921156 -0.155798 0.763543 2.434222 0.024125 0.772522 2.426685 0.009101 0.178435 4.857524 0.889823 0.185897 4.871252 0.809667 -0.000000 -0.000001 0.000000 0.591991 -3.396762 -12.264476 36.037871 8.023346 -53.107036 0.000012 -63.675402 0.000029 0.000002 0.000001 -0.000000 0.359068 7.988453 15.409515 10.890571 -7.560558 50.992881 0.000340 98.524932 -0.000370 -0.000001 -0.000001 0.000000 -25.494543 5.834450 -6.852275 57.564397 10.430998 -0.788348 -29.772682 -5.973451 22.091588 -11.817561 0.000005 -0.000002 -0.000000 0.000000 -0.000000 -16.311573 -16.058888 -8.392545 84.588416 -8.842470 2.125452 -2.095198 -5.807651 10.694205 -4.325949 0.000018 -0.000006 -0.000001 0.000000 0.000000 
11.880135 85.680450 -11.865590 -0.338639 -7.237642 -15.297622 10.070397 9.726883 0.045396 0.602544 2.642651 0.058640 0.613414 2.634176 0.047094 0.275296 4.783738 1.140786 0.280938 4.801519 1.061761 0.000001 0.000000 0.000000 0.602829 -1.651322 -10.331129 43.325058 9.338721 -56.215988 -0.000058 -67.390895 -0.000055 -0.000000 0.000001 -0.000000 0.284088 9.102194 15.744537 8.699763 -6.994160 46.319840 -0.000007 105.190227 -0.000019 0.000000 -0.000000 -0.000001 -26.201074 6.656270 -7.419129 53.727709 10.314408 -1.879227 -25.261550 -4.335534 23.878032 -10.627049 0.000001 0.000003 -0.000000 0.000000 -0.000000 -11.488089 -17.031731 -7.168221 82.833481 -8.797520 2.780539 -0.603041 -2.327939 8.617719 -6.311353 0.000011 0.000001 0.000002 0.000003 -0.000000 
14.807465 86.135506 -15.053697 -1.339693 -10.108323 -16.021057 9.602480 11.027319 0.619327 0.405406 2.962716 0.191928 0.422071 2.950261 0.185841 0.439457 4.698249 1.371040 0.443667 4.719949 1.292397 -0.000001 0.000000 -0.000000 0.551423 0.154745 -8.293722 50.123715 9.173948 -58.948829 0.000074 -70.375612 0.000070 -0.000000 0.000000 -0.000000 0.201106 10.389537 15.922923 5.880016 -6.942475 41.561001 0.000048 110.941636 -0.000046 -0.000001 0.000001 0.000002 -26.539376 7.575116 -7.164248 48.839777 10.161525 -2.991016 -19.616798 -2.495422 25.340898 -9.814568 0.000001 0.000008 -0.000000 0.000000 -0.000000 -6.711875 -17.535384 -5.359779 79.838600 -8.500408 3.267118 1.933827 -0.710601 4.691335 -8.103067 0.000003 -0.000004 0.000002 -0.000001 0.000000 
17.837580 86.815666 -18.318398 -2.433249 -12.998514 -17.041868 9.181815 12.761218 1.467796 0.252830 3.385853 0.412556 0.280696 3.366315 0.411424 0.640303 4.582347 1.518065 0.642096 4.606259 1.442205 0.000001 -0.000000 -0.000000 0.466187 1.444978 -6.589418 55.787459 8.541549 -61.048634 0.000017 -72.564538 0.000044 -0.000001 -0.000000 0.000000 0.152234 11.474340 15.727627 2.522354 -7.351384 37.600366 0.000057 115.607331 -0.000049 -0.000000 0.000002 0.000002 -25.721533 8.408245 -6.734273 41.585269 9.763264 -4.040846 -13.215674 -0.827534 28.392818 -9.251267 -0.000001 0.000009 0.000000 0.000000 -0.000000 -2.214599 -17.396458 -3.190488 76.124343 -8.561646 3.468102 4.531451 -0.769540 1.107402 -9.398522 -0.000012 0.000021 -0.000001 -0.000004 0.000005 
